<?xml version="1.0" standalone="no"?>
<!DOCTYPE svg PUBLIC "-//W3C//DTD SVG 20010904//EN"
 "http://www.w3.org/TR/2001/REC-SVG-20010904/DTD/svg10.dtd">
<svg version="1.0" xmlns="http://www.w3.org/2000/svg"
 width="400.000000pt" height="400.000000pt" viewBox="0 0 400.000000 400.000000"
 preserveAspectRatio="xMidYMid meet">
<metadata>
Created by potrace 1.14, written by Peter Selinger 2001-2017
</metadata>
<g transform="translate(0.000000,400.000000) scale(0.100000,-0.100000)"
fill="#000000" stroke="none">
<path d="M0 3610 c0 -305 3 -390 13 -390 9 0 9 -2 -1 -8 -16 -11 -16 -1160 0
-1179 7 -9 7 -13 -1 -13 -8 0 -11 -71 -11 -248 l0 -249 26 -24 c59 -55 111
-214 98 -297 -13 -82 -18 -99 -40 -141 -13 -25 -37 -61 -54 -80 l-31 -33 3
-267 3 -266 38 0 c34 0 38 -2 34 -23 -4 -19 -2 -20 11 -10 13 11 15 10 9 -5
-4 -10 0 -28 9 -42 13 -19 13 -27 2 -44 -7 -12 -16 -21 -20 -21 -5 0 -8 -7 -8
-15 0 -8 -4 -15 -10 -15 -5 0 -7 -7 -3 -16 6 -15 8 -15 20 2 7 10 13 13 13 7
0 -7 -12 -21 -27 -32 -14 -12 -23 -24 -20 -27 9 -10 -23 -65 -33 -59 -6 4 -10
12 -10 18 0 9 3 8 8 -1 6 -9 12 -6 20 13 8 16 8 25 1 25 -6 0 -8 4 -4 10 3 5
-3 18 -15 30 -22 22 -29 4 -7 -19 10 -11 10 -13 0 -7 -7 4 -13 2 -13 -3 0 -6
7 -11 15 -11 8 0 15 -4 15 -10 0 -5 -6 -10 -14 -10 -10 0 -14 -10 -14 -30 1
-16 5 -27 11 -23 5 3 4 -4 -2 -15 -6 -11 -11 -35 -11 -52 l0 -31 81 3 82 3 28
55 c16 30 33 54 38 53 6 -2 8 4 5 12 -4 8 -1 15 6 15 14 0 33 21 55 61 12 22
12 29 -1 54 -16 32 -18 49 -4 40 6 -4 7 -11 4 -17 -5 -7 -2 -8 5 -4 9 6 8 13
-6 28 -15 17 -16 21 -3 28 11 6 14 21 11 56 -3 42 -5 46 -16 31 -11 -15 -13
-16 -19 -2 -3 8 -2 15 3 15 5 0 11 9 14 21 3 12 10 18 16 14 8 -4 7 2 -1 19
-12 28 -23 33 -34 14 -5 -7 -12 -5 -22 8 -13 16 -14 17 -9 2 4 -10 3 -18 -2
-18 -20 0 -18 -41 2 -55 23 -16 16 -19 -21 -9 -13 4 -21 12 -19 19 3 6 -1 12
-9 12 -7 0 -10 -5 -7 -10 3 -6 1 -7 -4 -4 -6 4 -13 19 -16 33 -5 29 21 64 48
64 8 0 15 5 15 10 0 6 7 10 15 10 9 0 21 12 28 28 6 15 16 30 22 34 6 5 5 8
-3 8 -7 0 -16 -8 -19 -17 -6 -15 -8 -14 -13 7 -3 14 -14 26 -24 28 -11 3 -16
0 -12 -7 4 -6 1 -11 -7 -11 -20 0 -30 29 -16 46 10 12 15 12 35 -1 25 -16 33
-8 12 13 -7 7 -9 12 -4 12 4 0 0 10 -8 22 -9 12 -16 28 -16 35 0 17 40 16 64
-2 38 -28 45 -20 31 35 -7 28 -9 50 -5 50 5 0 12 -19 17 -43 6 -33 9 -7 14
118 l5 160 0 -168 c-1 -167 -1 -167 22 -167 13 0 39 -17 63 -42 32 -33 40 -48
36 -68 -4 -20 -1 -28 16 -36 12 -5 21 -14 20 -20 -1 -5 6 -20 16 -33 l18 -23
34 53 c18 30 39 65 47 79 7 14 19 32 26 40 12 14 28 47 30 62 1 3 5 10 10 15
5 5 6 3 2 -4 -5 -9 0 -13 16 -13 22 -1 22 -1 -5 -18 -15 -9 -27 -22 -27 -28 0
-6 -11 -21 -25 -34 -14 -13 -25 -28 -25 -33 0 -13 -62 -111 -72 -115 -5 -2 -8
-13 -8 -23 0 -11 -4 -17 -10 -14 -5 3 -13 -7 -16 -22 -7 -25 -8 -25 -15 -8 -7
17 -8 18 -8 3 -1 -17 -18 -23 -50 -18 -12 1 -13 -1 -2 -14 7 -8 10 -24 6 -36
-5 -17 -2 -20 20 -20 22 0 25 3 19 24 -7 29 9 42 26 21 18 -21 23 -19 61 19
49 49 125 86 177 86 31 0 44 5 49 18 4 9 14 27 24 39 l17 23 25 -20 c21 -17
31 -18 68 -10 71 15 120 34 115 46 -2 6 7 9 25 6 22 -3 29 0 29 12 0 10 5 14
11 10 8 -5 9 10 3 52 -4 33 -8 82 -9 109 -1 28 -5 58 -10 68 -7 17 -8 17 -29
0 -13 -11 -17 -12 -10 -3 12 16 -7 66 -19 53 -4 -3 -7 4 -7 17 0 13 -3 21 -6
17 -11 -11 -34 21 -28 37 8 21 21 20 28 -1 2 -10 4 17 3 59 -1 45 2 79 8 82 6
2 9 -31 7 -93 -4 -88 2 -116 13 -61 6 33 15 38 15 8 0 -14 8 -32 18 -41 26
-24 39 -21 17 3 -24 27 -7 26 22 -2 23 -22 33 -12 11 10 -9 9 -9 12 -1 12 7 0
14 -4 18 -10 10 -16 33 0 38 26 3 19 -1 26 -19 30 -13 3 -21 11 -18 16 4 7 0
6 -12 0 -11 -6 -32 -9 -47 -9 l-27 2 23 18 c12 10 16 16 9 12 -13 -7 -35 12
-40 33 -1 6 3 12 8 12 6 0 4 14 -5 31 -9 17 -14 33 -11 36 2 3 12 -9 20 -25 9
-17 21 -34 27 -38 8 -4 8 0 0 15 -7 11 -9 21 -5 21 4 0 -1 10 -12 23 -10 12 1
4 24 -18 41 -38 59 -40 25 -3 -16 18 -16 18 0 12 10 -3 22 -15 28 -25 5 -11
15 -19 21 -19 9 0 9 3 0 12 -20 20 -14 33 7 14 17 -15 19 -15 32 0 14 17 18
45 8 54 -10 8 -18 90 -8 84 5 -3 9 -12 9 -20 0 -8 4 -13 9 -10 5 3 14 -1 21
-9 8 -10 18 -11 35 -5 13 5 26 6 29 3 3 -4 6 1 6 10 0 10 5 17 10 17 16 0 12
27 -5 34 -8 3 -15 12 -15 21 0 9 -9 15 -25 15 -14 0 -25 6 -25 13 0 12 -58 39
-77 36 -4 -1 -15 -1 -23 1 -11 1 -9 4 5 9 16 7 13 9 -18 15 -32 6 -37 10 -26
22 10 12 9 13 -5 8 -9 -3 -16 -10 -16 -15 0 -4 -7 -6 -16 -2 -15 6 -15 7 0 19
16 11 16 13 -1 17 -10 3 -1 5 20 6 20 0 37 6 37 11 0 6 6 10 13 10 21 0 50 57
38 77 -9 18 -61 27 -61 11 0 -14 -43 -58 -56 -58 -7 0 -20 10 -29 22 -12 18
-19 21 -33 12 -19 -12 -21 -54 -7 -155 8 -60 4 -65 -53 -53 -21 4 -22 7 -10
21 11 14 10 15 -9 9 -23 -7 -41 8 -22 20 8 5 9 3 4 -6 -5 -9 -2 -10 14 -5 15
4 29 1 42 -11 28 -25 33 -12 20 52 -6 32 -11 70 -11 86 0 15 -4 28 -10 28 -5
0 -7 -8 -4 -17 5 -15 4 -16 -5 -3 -6 9 -7 18 -1 24 6 6 10 23 10 39 0 16 7 36
16 44 12 12 13 18 3 24 -9 5 -3 16 19 39 18 17 32 28 32 23 0 -5 -5 -14 -12
-21 -19 -19 0 -27 20 -9 34 31 64 107 70 173 2 36 9 67 13 70 5 3 9 24 8 47 0
39 -1 40 -11 17 -8 -19 -12 -21 -16 -10 -3 8 -10 18 -16 22 -7 4 -4 9 7 13 13
6 14 11 6 27 -6 11 -8 22 -5 25 3 3 10 -7 16 -22 6 -15 13 -25 16 -22 9 9 -17
78 -27 72 -5 -4 -6 1 -3 10 10 25 -16 66 -37 60 -9 -3 -20 -1 -24 5 -4 6 4 10
19 10 28 0 31 6 17 29 -12 19 -38 22 -38 5 0 -8 4 -14 9 -14 4 0 8 5 8 12 0 6
3 8 7 5 3 -4 -6 -18 -20 -31 -18 -17 -29 -21 -34 -13 -3 6 -1 13 5 15 7 2 12
10 12 19 0 12 -3 11 -17 -3 -12 -12 -18 -13 -21 -4 -3 7 -1 15 4 19 9 6 15 23
17 53 1 10 5 18 10 18 5 0 5 -9 2 -20 -3 -11 -3 -20 2 -21 33 -3 50 -12 75
-38 16 -17 34 -31 40 -31 6 0 4 8 -5 18 -23 25 -21 35 2 20 11 -7 22 -20 25
-31 4 -17 8 -16 47 12 23 17 48 31 56 31 7 0 13 6 13 13 0 19 -26 109 -44 149
-10 23 -12 39 -6 43 30 18 -28 158 -68 163 -12 2 -22 -1 -22 -7 0 -6 8 -7 17
-4 14 6 14 3 -3 -20 -20 -28 -47 -37 -38 -12 4 9 0 15 -9 15 -9 0 -14 10 -14
25 0 13 3 22 8 19 5 -3 9 -12 9 -20 0 -8 5 -14 11 -14 6 0 8 9 4 21 -6 19 -4
21 13 17 19 -5 32 8 32 33 0 14 -18 11 -23 -3 -2 -7 -3 -5 -2 5 2 9 -1 17 -6
17 -5 0 -9 5 -9 10 0 6 8 5 20 -2 27 -17 33 -6 15 28 -8 16 -15 39 -15 52 0
19 -4 22 -21 17 -13 -5 -19 -3 -15 3 3 5 -1 12 -9 16 -8 3 -15 1 -15 -5 0 -6
-7 -8 -16 -5 -9 4 -22 2 -28 -2 -19 -15 -96 -31 -102 -21 -3 5 -10 6 -16 3 -7
-5 -8 -2 -4 5 5 7 15 10 23 7 12 -5 14 -1 11 19 -3 13 -1 22 3 19 5 -3 9 4 9
15 0 12 -4 21 -10 21 -5 0 -10 -4 -10 -10 0 -5 -4 -10 -8 -10 -5 0 -9 7 -9 15
0 8 7 15 15 15 18 0 7 13 -13 16 -10 2 -15 -7 -15 -24 0 -18 -3 -23 -11 -15
-15 15 -1 63 17 56 12 -4 12 0 5 20 -14 37 -124 167 -134 158 -14 -13 4 -43
22 -36 13 5 14 4 3 -7 -11 -11 -16 -10 -26 5 -16 21 -26 22 -26 2 0 -9 7 -18
15 -21 8 -4 15 -11 15 -17 0 -6 8 -19 18 -30 9 -11 11 -17 5 -13 -16 9 -17 -8
-1 -33 7 -11 19 -16 30 -13 14 3 18 -1 19 -19 0 -22 1 -23 9 -4 6 16 2 22 -19
32 -15 7 -19 13 -11 13 8 1 24 3 35 5 27 5 37 -14 19 -39 -8 -11 -14 -29 -14
-39 0 -10 -4 -16 -9 -13 -5 3 -11 0 -14 -7 -3 -9 -21 -13 -55 -12 -44 2 -49 0
-44 -17 3 -11 8 -16 11 -11 3 4 14 9 24 11 26 4 21 -26 -5 -31 -22 -4 -22 -4
-2 -6 13 0 24 -10 28 -23 5 -22 6 -22 32 9 15 19 32 29 40 26 10 -3 12 0 9 10
-4 8 1 17 9 20 21 8 21 -16 1 -33 -8 -7 -12 -17 -8 -24 3 -6 0 -6 -8 2 -18 17
-30 15 -23 -3 4 -9 1 -15 -8 -15 -7 0 -19 -9 -26 -20 -7 -12 -17 -18 -21 -15
-5 3 -11 -1 -14 -7 -2 -7 -8 -10 -12 -6 -4 4 -5 15 -1 24 5 13 9 14 21 4 10
-8 15 -9 15 -2 0 18 -17 23 -45 12 -23 -9 -24 -12 -14 -31 8 -17 8 -20 -2 -17
-6 2 -16 14 -20 27 -6 14 -5 20 1 16 6 -3 10 1 10 10 0 9 4 14 9 10 5 -3 13 0
17 6 5 9 0 10 -14 7 -18 -5 -23 0 -30 25 -6 21 -5 35 2 39 6 5 2 8 -10 8 -12
0 -24 7 -28 15 -3 8 -9 14 -13 13 -4 -2 -8 1 -8 7 0 5 3 9 8 7 14 -4 -48 83
-85 119 -21 20 -38 35 -38 32 0 -13 27 -51 50 -71 18 -15 26 -30 23 -41 -3
-11 0 -22 6 -25 7 -5 9 0 5 11 -5 15 -4 15 5 3 19 -27 -6 -33 -41 -9 -51 35
-101 87 -94 97 3 6 0 12 -6 15 -10 3 -10 7 -1 18 6 8 13 26 15 39 2 14 7 31
11 38 5 7 4 12 -2 12 -6 0 -11 10 -11 22 0 12 -6 40 -14 63 -8 22 -25 75 -37
119 -13 43 -25 73 -27 67 -5 -15 -22 -3 -22 15 0 8 4 12 10 9 6 -3 7 1 4 9 -3
9 -11 13 -17 9 -6 -4 -7 -1 -3 6 9 14 -30 127 -53 155 -9 11 -10 16 -3 12 6
-4 1 14 -13 40 -14 26 -25 54 -25 63 0 9 -6 27 -13 41 -7 14 -19 44 -27 68 -8
27 -18 41 -26 38 -8 -3 -16 0 -20 6 -5 7 -2 8 6 3 9 -5 11 -4 6 3 -4 7 -13 12
-20 12 -8 0 -19 7 -26 16 -8 8 -9 14 -4 13 23 -4 24 3 4 34 l-22 32 26 -29
c13 -17 23 -33 20 -37 -2 -4 10 -12 28 -18 41 -14 43 -14 27 5 -12 15 -11 16
9 10 29 -9 29 8 0 22 -20 10 -17 11 16 5 28 -4 37 -3 32 6 -4 6 -13 11 -21 11
-8 0 -17 4 -20 10 -4 7 3 7 20 0 34 -13 38 -13 29 2 -5 7 -1 9 13 6 19 -5 19
-4 6 23 l-14 29 -180 0 -179 0 0 -390z m115 343 c11 -15 15 -15 29 -4 9 8 19
11 23 7 3 -3 1 -6 -5 -6 -7 0 -12 -6 -12 -13 0 -21 -24 -16 -43 10 -10 13 -15
23 -11 23 4 0 12 -8 19 -17z m69 -49 c5 -13 2 -15 -14 -11 -11 3 -20 0 -20 -6
0 -7 -5 -5 -10 3 -7 11 -4 17 13 22 12 3 23 6 23 7 1 1 5 -6 8 -15z m-44 -49
c0 -8 -4 -15 -10 -15 -5 0 -7 7 -4 15 4 8 8 15 10 15 2 0 4 -7 4 -15z m30 -95
c0 -5 6 -10 13 -10 8 0 20 -11 27 -25 10 -18 16 -22 22 -13 6 10 8 9 8 -3 0
-13 37 -39 60 -43 13 -3 30 -18 30 -29 0 -6 -7 -2 -15 9 -8 10 -15 15 -15 11
0 -4 -9 -3 -21 3 -20 11 -20 11 -5 -18 8 -16 12 -32 9 -36 -4 -3 -1 -6 5 -6 5
0 13 6 15 13 3 6 6 2 6 -10 1 -12 11 -29 23 -37 12 -9 17 -16 10 -16 -20 0
-14 -17 18 -53 16 -19 27 -37 23 -41 -3 -3 1 -6 10 -6 9 0 17 -5 17 -11 0 -6
-7 -9 -15 -6 -11 5 -12 1 -4 -20 9 -25 8 -25 -21 -20 -17 4 -43 16 -58 27 -27
20 -37 36 -80 133 l-22 47 24 -6 c31 -7 39 16 21 60 -14 33 -45 53 -64 41 -11
-6 -20 5 -31 45 -5 18 -5 30 1 30 5 0 9 -4 9 -10z m128 -75 c-3 -3 -9 2 -12
12 -6 14 -5 15 5 6 7 -7 10 -15 7 -18z m46 -81 c3 -8 2 -12 -4 -9 -6 3 -10 10
-10 16 0 14 7 11 14 -7z m39 -64 c3 -11 1 -18 -4 -14 -5 3 -9 12 -9 20 0 20 7
17 13 -6z m-318 -470 c-3 -5 -12 -10 -18 -10 -7 0 -6 4 3 10 19 12 23 12 15 0z
m795 -102 c0 -5 -7 -8 -15 -8 -9 0 -12 6 -9 15 4 8 1 15 -6 15 -6 0 -8 5 -5
11 7 10 34 -16 35 -33z m35 -27 c-6 -5 -25 10 -25 20 0 5 6 4 14 -3 8 -7 12
-15 11 -17z m-35 5 c0 -3 -4 -8 -10 -11 -5 -3 -10 -1 -10 4 0 6 5 11 10 11 6
0 10 -2 10 -4z m44 -137 c-3 -5 -10 -6 -16 -3 -6 4 -8 2 -5 -3 8 -13 -19 -37
-32 -29 -5 3 -12 0 -14 -6 -3 -8 -6 -6 -6 5 -1 9 5 17 12 17 7 0 20 9 30 20
17 20 44 19 31 -1z m-220 -26 c3 -7 -1 -13 -8 -13 -7 0 -18 6 -24 13 -8 10 -6
13 8 13 11 0 22 -6 24 -13z m31 7 c-3 -5 -2 -10 3 -10 5 0 13 -10 19 -23 8
-17 7 -25 -4 -35 -12 -12 -13 -9 -7 14 4 17 3 25 -3 21 -6 -4 -15 5 -21 18
-10 21 -9 25 4 25 8 0 12 -4 9 -10z m-500 -10 c3 -5 1 -10 -4 -10 -6 0 -11 5
-11 10 0 6 2 10 4 10 3 0 8 -4 11 -10z m282 -13 c3 -6 1 -7 -5 -3 -7 4 -12 1
-12 -6 0 -9 -3 -9 -10 2 -8 12 -10 10 -11 -10 -1 -17 -3 -20 -6 -7 -2 9 -8 15
-12 13 -4 -3 -7 3 -8 13 -1 14 5 16 28 13 16 -2 32 -9 36 -15z m130 9 c-4 -10
-1 -13 7 -10 8 3 17 1 21 -5 6 -11 -7 -15 -34 -12 -8 2 -10 -2 -5 -10 4 -8 3
-10 -4 -5 -8 5 -11 1 -9 -11 4 -25 16 -43 29 -43 6 0 5 7 -3 17 -12 15 -12 16
5 10 14 -6 17 -4 12 8 -3 8 -1 15 4 15 13 0 13 -7 -2 -47 -7 -18 -16 -33 -21
-33 -4 0 -5 -4 -2 -10 3 -5 1 -10 -5 -10 -7 0 -9 7 -6 16 4 11 -1 22 -14 31
-17 12 -18 18 -9 29 9 11 8 14 -5 14 -9 0 -16 5 -16 10 0 6 7 10 16 10 9 0 12
5 8 12 -4 7 -3 8 4 4 7 -4 12 -2 12 3 0 6 -4 11 -10 11 -5 0 -10 5 -10 10 0 6
9 10 21 10 14 0 19 -5 16 -14z m-77 -6 c0 -5 8 -7 18 -4 16 5 16 5 0 -6 -13
-8 -23 -8 -38 0 -25 14 -25 20 0 20 11 0 20 -4 20 -10z m-360 -14 c0 -3 -4 -8
-10 -11 -5 -3 -10 -1 -10 4 0 6 5 11 10 11 6 0 10 -2 10 -4z m380 -57 c0 -9 7
-19 15 -23 22 -8 18 -31 -7 -48 -19 -12 -20 -18 -11 -30 10 -12 10 -15 -2 -15
-8 0 -12 4 -9 8 2 4 -13 6 -35 4 -29 -3 -39 0 -35 9 3 7 -2 13 -9 13 -8 0 -14
-10 -14 -23 0 -13 4 -21 10 -17 21 13 -1 -21 -23 -36 -20 -14 -23 -14 -15 -1
11 17 12 21 14 56 1 17 8 28 21 31 24 6 26 19 3 31 -13 8 -11 11 15 17 35 7
37 11 23 48 -6 14 -7 27 -4 30 9 10 63 -36 63 -54z m120 35 c0 -8 -4 -14 -10
-14 -5 0 -10 9 -10 21 0 11 5 17 10 14 6 -3 10 -13 10 -21z m380 13 c0 -7 -5
-18 -11 -24 -8 -8 -5 -16 9 -31 11 -11 19 -22 17 -24 -1 -1 7 -12 18 -23 11
-11 17 -14 13 -7 -4 6 -2 12 3 12 15 0 14 -17 -1 -26 -6 -4 -16 0 -23 9 -7 10
-18 17 -25 17 -7 0 -10 6 -7 13 3 7 -1 21 -8 30 -11 15 -14 15 -18 3 -3 -8 -2
-17 4 -20 5 -2 4 -3 -3 -2 -7 2 -13 14 -12 27 0 14 5 23 13 21 8 -2 11 3 8 12
-6 15 0 26 15 26 4 0 8 -6 8 -13z m30 3 c0 -5 -4 -10 -10 -10 -5 0 -10 5 -10
10 0 6 5 10 10 10 6 0 10 -4 10 -10z m-80 -10 c0 -5 -7 -10 -16 -10 -8 0 -12
5 -9 10 3 6 10 10 16 10 5 0 9 -4 9 -10z m-14 -45 c0 -25 -20 -24 -30 1 -7 17
-33 18 -39 2 -3 -8 -6 -6 -6 5 -1 22 38 38 59 24 9 -5 16 -20 16 -32z m-100
10 c1 -9 -4 -11 -14 -7 -10 4 -12 7 -4 10 7 2 9 9 5 15 -3 7 -2 8 2 4 5 -4 10
-14 11 -22z m209 16 c3 -5 2 -12 -3 -15 -5 -3 -9 1 -9 9 0 17 3 19 12 6z
m-408 -23 c-3 -8 -6 -5 -6 6 -1 11 2 17 5 13 3 -3 4 -12 1 -19z m177 -18 c10
-13 9 -13 -6 -1 -10 7 -18 21 -17 30 0 13 1 14 6 1 3 -8 11 -22 17 -30z m270
14 c5 -14 4 -15 -9 -4 -17 14 -19 20 -6 20 5 0 12 -7 15 -16z m-464 -9 c0 -8
5 -15 11 -15 6 0 9 -6 6 -14 -3 -8 1 -20 9 -26 15 -13 19 -30 6 -30 -7 0 -62
85 -62 95 0 3 7 5 15 5 8 0 15 -7 15 -15z m294 -19 c21 -44 20 -53 -1 -33 -10
8 -21 15 -25 14 -3 -1 -10 1 -14 6 -4 4 0 7 9 7 10 0 17 4 17 10 0 5 -7 7 -15
4 -11 -5 -13 -2 -9 10 9 24 20 19 38 -18z m-114 -12 c0 -8 -4 -14 -10 -14 -5
0 -7 6 -4 14 3 8 1 17 -5 21 -6 3 -12 0 -13 -7 0 -7 -2 -17 -3 -23 -2 -5 -3
-14 -4 -19 0 -6 -8 -1 -15 10 -13 17 -13 21 7 36 23 18 47 9 47 -18z m-490 16
c0 -5 -5 -10 -11 -10 -5 0 -7 5 -4 10 3 6 8 10 11 10 2 0 4 -4 4 -10z m550 -5
c0 -8 -4 -15 -10 -15 -5 0 -7 7 -4 15 4 8 8 15 10 15 2 0 4 -7 4 -15z m-175
-3 c6 -4 11 -14 13 -22 1 -10 -2 -9 -13 4 -8 11 -15 14 -15 7 0 -7 -4 -9 -10
-6 -5 3 -10 10 -10 16 0 11 21 12 35 1z m165 -40 c0 -5 -6 -14 -12 -20 -10 -8
-13 -2 -14 23 0 27 2 31 13 20 7 -8 13 -18 13 -23z m130 34 c0 -2 -8 -10 -17
-17 -16 -13 -17 -12 -4 4 13 16 21 21 21 13z m-385 -16 c-3 -5 -12 -10 -18
-10 -7 0 -6 4 3 10 19 12 23 12 15 0z m415 -10 c0 -5 -4 -10 -10 -10 -5 0 -10
5 -10 10 0 6 5 10 10 10 6 0 10 -4 10 -10z m-640 -22 c0 -5 -9 -4 -20 2 -11 6
-20 12 -20 14 0 2 9 2 20 -1 11 -3 20 -9 20 -15z m233 3 c-4 -16 -8 -17 -18
-8 -10 10 -10 13 4 19 9 4 17 7 18 7 0 1 -1 -8 -4 -18z m-412 -14 c-10 -9 -11
-8 -5 6 3 10 9 15 12 12 3 -3 0 -11 -7 -18z m333 7 c3 -8 2 -12 -4 -9 -6 3
-10 10 -10 16 0 14 7 11 14 -7z m30 1 c-4 -8 -7 -15 -9 -15 -2 0 -5 7 -9 15
-3 9 0 15 9 15 9 0 12 -6 9 -15z m144 -10 c-3 -3 -9 2 -12 12 -6 14 -5 15 5 6
7 -7 10 -15 7 -18z m-381 0 c5 -4 3 -5 -4 -1 -6 3 -15 1 -19 -5 -5 -9 4 -10
37 -5 l44 7 -30 -31 c-29 -30 -29 -30 -41 -9 -7 14 -14 18 -18 10 -4 -6 -2
-11 3 -11 6 0 11 -11 11 -24 0 -14 5 -28 10 -31 6 -3 10 -11 10 -16 0 -6 -4
-8 -9 -5 -10 7 -7 -141 3 -151 6 -6 11 76 8 125 0 12 3 20 9 17 5 -4 9 -13 9
-21 0 -8 4 -14 9 -14 6 0 12 -15 14 -32 l4 -33 1 37 c1 20 -1 38 -5 40 -5 2
-16 18 -26 35 -15 27 -15 32 -3 27 8 -3 18 -14 21 -25 4 -10 10 -19 15 -19 5
0 7 7 4 15 -4 8 -2 15 4 15 5 0 9 -29 8 -65 0 -36 -4 -65 -8 -65 -5 0 -8 -6
-8 -14 0 -7 -6 -19 -13 -25 -10 -8 -13 -30 -11 -77 3 -57 2 -65 -11 -54 -8 6
-19 9 -25 5 -8 -5 -15 29 -11 57 0 4 -6 5 -14 2 -18 -7 -21 21 -4 32 15 9 4
181 -12 200 -9 10 -9 14 0 14 8 0 9 17 5 55 -6 52 -6 55 14 52 12 -2 25 -7 29
-12z m444 -8 c-10 -9 -11 -8 -5 6 3 10 9 15 12 12 3 -3 0 -11 -7 -18z m109 -2
c-13 -14 -25 -23 -27 -21 -6 6 30 46 41 46 5 0 -1 -11 -14 -25z m138 0 c0 -31
-20 -28 -25 3 -2 14 2 22 11 22 8 0 14 -11 14 -25z m-414 -25 c-6 -5 -24 21
-24 34 0 6 6 1 14 -10 8 -10 12 -21 10 -24z m117 13 c-12 -20 -14 -14 -5 12 4
9 9 14 11 11 3 -2 0 -13 -6 -23z m259 7 c0 -5 -2 -10 -4 -10 -3 0 -8 5 -11 10
-3 6 -1 10 4 10 6 0 11 -4 11 -10z m-530 -10 c0 -5 -2 -10 -4 -10 -3 0 -8 5
-11 10 -3 6 -1 10 4 10 6 0 11 -4 11 -10z m119 -7 c-1 -23 -17 -63 -18 -45 -1
7 -5 10 -11 7 -6 -3 -10 4 -9 17 0 13 3 17 6 11 8 -21 25 -14 18 7 -4 11 -2
20 4 20 6 0 11 -8 10 -17z m91 7 c0 -5 -2 -10 -4 -10 -3 0 -8 5 -11 10 -3 6
-1 10 4 10 6 0 11 -4 11 -10z m150 0 c0 -5 -5 -10 -11 -10 -5 0 -7 5 -4 10 3
6 8 10 11 10 2 0 4 -4 4 -10z m30 -10 c0 -11 -2 -20 -4 -20 -2 0 -6 9 -9 20
-3 11 -1 20 4 20 5 0 9 -9 9 -20z m-320 -17 c-1 -24 -2 -26 -11 -10 -5 9 -7
22 -4 27 10 17 15 11 15 -17z m217 5 c-3 -8 -6 -5 -6 6 -1 11 2 17 5 13 3 -3
4 -12 1 -19z m280 -4 c18 -8 33 -22 33 -30 0 -13 3 -14 14 -5 8 7 17 8 20 3 3
-5 20 -7 38 -6 l33 3 -35 -9 c-70 -20 -98 -21 -104 -3 -4 9 -9 13 -12 10 -3
-3 -1 -14 5 -26 6 -11 7 -22 3 -25 -15 -9 -29 9 -29 40 1 25 4 31 16 26 14 -5
14 -4 1 10 -13 14 -17 15 -26 3 -9 -12 -13 -11 -26 4 -15 17 -14 19 10 19 14
0 40 -7 59 -14z m-517 -15 c0 -5 -4 -9 -8 -9 -5 0 -9 7 -9 15 0 8 4 12 9 9 4
-3 8 -9 8 -15z m91 -6 c-8 -15 -10 -15 -11 -2 0 17 10 32 18 25 2 -3 -1 -13
-7 -23z m25 -21 c-12 -11 -18 7 -10 30 l8 23 4 -23 c2 -13 1 -26 -2 -30z m65
31 c11 -15 11 -16 -1 -5 -19 17 -30 15 -30 -5 0 -14 -3 -14 -12 -5 -10 10 -10
15 2 22 21 13 26 12 41 -7z m137 -19 c-3 -14 -5 -12 -10 9 -3 19 -2 25 4 19 6
-6 8 -18 6 -28z m296 21 c-4 -8 -10 -15 -15 -15 -5 0 -9 7 -9 15 0 8 7 15 15
15 9 0 12 -6 9 -15z m-314 -20 c0 -8 -4 -15 -10 -15 -5 0 -10 7 -10 15 0 8 5
15 10 15 6 0 10 -7 10 -15z m142 -7 c-18 -18 -61 -18 -55 -1 3 7 19 13 36 13
25 0 28 -3 19 -12z m-496 -27 c-4 -6 -13 -11 -19 -11 -8 0 -7 3 2 9 8 5 10 14
6 22 -6 11 -5 11 5 2 7 -6 9 -16 6 -22z m215 -2 c-5 -13 -10 -19 -10 -12 -1
15 10 45 15 40 3 -2 0 -15 -5 -28z m-406 11 c3 -5 1 -10 -4 -10 -6 0 -11 5
-11 10 0 6 2 10 4 10 3 0 8 -4 11 -10z m600 0 c-3 -5 -2 -10 3 -10 6 0 8 -9 5
-19 -6 -23 -43 -36 -43 -14 0 8 5 11 10 8 6 -3 10 -1 10 5 0 7 -8 9 -20 5 -31
-10 -24 12 8 23 15 6 28 11 30 11 2 1 0 -3 -3 -9z m115 -14 c0 -14 -5 -28 -12
-32 -8 -5 -9 0 -6 14 4 12 2 22 -4 22 -5 0 -6 5 -3 10 11 18 25 10 25 -14z
m-44 -6 c16 0 19 -16 5 -25 -6 -3 -14 3 -20 12 -5 10 -13 14 -17 10 -4 -4 -3
-12 3 -18 16 -16 4 -39 -20 -39 -20 0 -20 1 -2 13 13 10 15 16 6 21 -9 6 -8
13 6 28 10 11 19 15 21 9 2 -6 10 -11 18 -11z m224 11 c0 -15 -18 -23 -25 -11
-3 5 -11 10 -17 10 -7 0 -6 -6 2 -15 7 -9 8 -15 2 -15 -14 0 -3 -38 14 -44 10
-4 8 -12 -11 -32 -14 -15 -28 -24 -33 -20 -4 4 1 12 11 17 18 11 24 39 7 39
-5 0 -10 10 -10 22 0 24 -10 19 -14 -8 -2 -10 -9 -20 -16 -22 -9 -3 -11 2 -7
17 3 11 1 24 -4 27 -17 10 -9 20 24 31 42 14 77 15 77 4z m-528 -19 c8 -8 9
-12 1 -12 -6 0 -13 3 -16 8 -2 4 -2 2 -1 -5 2 -7 -1 -15 -6 -18 -6 -4 -10 -2
-10 4 0 5 -3 16 -6 24 -7 18 20 17 38 -1z m122 -7 c-7 -17 -34 -21 -34 -4 0 5
4 8 9 4 5 -3 12 -1 16 5 9 15 15 12 9 -5z m424 -13 c2 -7 -2 -10 -12 -6 -9 3
-16 1 -16 -6 0 -6 -4 -8 -10 -5 -5 3 -10 11 -10 16 0 6 5 7 10 4 6 -3 10 -1
10 5 0 15 22 8 28 -8z m-387 -5 c-6 -8 -7 -18 -3 -22 4 -5 1 -5 -6 -1 -10 6
-10 11 -1 22 6 8 14 14 16 14 3 0 0 -6 -6 -13z m215 1 c-1 -7 -5 -18 -9 -25
-4 -6 -4 -14 1 -17 14 -8 31 8 29 28 -1 10 3 21 10 23 8 3 12 -9 11 -39 0 -62
1 -70 11 -64 5 3 23 -1 40 -10 17 -8 35 -12 41 -9 11 7 40 -18 40 -34 0 -17
-18 -13 -29 7 -6 9 -11 13 -11 8 0 -5 -6 -3 -14 3 -9 8 -16 8 -20 2 -4 -6 3
-15 14 -21 11 -6 18 -16 14 -21 -4 -6 -13 -4 -25 7 -18 16 -19 16 -19 -2 0
-16 -2 -17 -10 -4 -13 20 -13 33 0 25 6 -3 10 3 10 14 0 14 -5 19 -15 15 -8
-4 -27 -3 -43 1 -24 6 -25 8 -10 19 11 8 14 17 8 26 -12 19 -50 20 -50 2 0
-10 7 -13 22 -9 20 6 20 5 5 -11 -16 -15 -18 -15 -37 6 -21 22 -27 37 -10 27
6 -3 10 -1 10 4 0 6 -4 11 -10 11 -5 0 -12 0 -15 0 -3 0 -4 -1 -3 -2 1 -2 -10
-16 -25 -32 -15 -16 -27 -33 -27 -37 0 -5 -5 -9 -11 -9 -6 0 -8 8 -4 19 4 15
2 18 -12 15 -11 -3 -23 3 -31 17 -18 28 -9 34 20 15 14 -9 28 -13 31 -9 4 3 7
0 7 -7 0 -13 15 -5 15 8 4 44 37 66 62 41 8 -8 13 -5 18 10 7 22 25 29 21 9z
m-906 -20 c0 -12 -9 -41 -21 -65 -19 -40 -24 -43 -55 -41 -27 2 -34 7 -35 23
0 20 0 20 -10 0 l-9 -20 3 20 c2 12 9 19 19 17 9 -1 22 7 29 19 12 23 59 68
72 69 4 0 7 -10 7 -22z m483 2 c-3 -11 -9 -17 -15 -14 -5 3 -4 12 3 20 16 19
18 18 12 -6z m-88 -13 c6 -5 4 -7 -5 -4 -8 2 -25 -7 -37 -19 -12 -13 -24 -20
-27 -15 -8 13 4 42 14 36 5 -3 15 1 22 9 7 8 15 11 18 8 3 -4 10 -11 15 -15z
m175 -12 c0 -5 -5 -3 -10 5 -5 8 -10 20 -10 25 0 6 5 3 10 -5 5 -8 10 -19 10
-25z m57 9 c-9 -9 -28 6 -21 18 4 6 10 6 17 -1 6 -6 8 -13 4 -17z m32 -31 c0
-25 -1 -26 -9 -8 -5 12 -9 14 -9 6 -1 -8 -3 -12 -6 -9 -8 7 5 38 16 38 5 0 9
-12 8 -27z m325 3 c-10 -8 -21 -12 -23 -10 -3 2 4 11 15 18 10 8 21 12 23 10
3 -2 -4 -11 -15 -18z m-274 -7 c0 -4 -7 -6 -15 -3 -8 4 -15 10 -15 15 0 4 7 6
15 3 8 -4 15 -10 15 -15z m-249 1 c6 0 6 -7 0 -19 -14 -25 -48 -33 -56 -14 -7
20 14 45 32 38 8 -3 19 -5 24 -5z m619 -16 c15 -37 12 -40 -10 -11 -22 28 -25
37 -10 37 6 0 15 -12 20 -26z m-220 0 c0 -2 -7 -4 -15 -4 -8 0 -15 4 -15 10 0
5 7 7 15 4 8 -4 15 -8 15 -10z m190 -4 c0 -5 -7 -10 -16 -10 -8 0 -12 5 -9 10
3 6 10 10 16 10 5 0 9 -4 9 -10z m-435 -12 c-30 -16 -30 -16 -10 -38 10 -11
13 -20 7 -20 -6 0 -12 6 -15 13 -6 16 -22 0 -32 -30 -5 -17 -3 -22 8 -18 10 4
14 -3 14 -27 0 -18 -2 -28 -4 -21 -3 7 -10 10 -18 7 -7 -3 -16 -1 -20 5 -3 7
0 8 9 5 9 -3 16 -1 16 5 0 6 -6 11 -13 11 -19 0 -13 51 7 62 9 5 14 14 10 19
-7 12 24 38 46 38 10 0 9 -3 -5 -11z m153 -25 c33 -27 43 -31 38 -17 -7 24 8
52 19 34 4 -7 2 -16 -5 -20 -9 -6 -7 -13 9 -29 19 -19 20 -22 4 -19 -12 2 -17
-2 -14 -12 8 -34 11 -54 5 -42 -3 6 -9 10 -14 7 -5 -3 -11 4 -15 15 -7 23 -21
26 -28 8 -3 -7 -6 -3 -6 10 -1 12 -6 22 -12 22 -5 0 -7 5 -4 11 4 5 -1 18 -12
27 -18 17 -28 42 -17 42 4 0 27 -16 52 -37z m97 17 c3 -5 1 -10 -4 -10 -6 0
-11 5 -11 10 0 6 2 10 4 10 3 0 8 -4 11 -10z m-191 -25 c-4 -8 -11 -12 -16 -9
-6 4 -5 10 3 15 19 12 19 11 13 -6z m230 9 c9 -3 16 -11 16 -16 0 -6 -6 -6
-14 1 -11 9 -15 9 -19 -1 -2 -7 -8 -10 -12 -6 -4 4 -4 11 0 17 7 13 8 13 29 5z
m-44 -14 c0 -5 -7 -10 -15 -10 -8 0 -15 5 -15 10 0 6 7 10 15 10 8 0 15 -4 15
-10z m95 0 c3 -5 1 -10 -4 -10 -6 0 -11 5 -11 10 0 6 2 10 4 10 3 0 8 -4 11
-10z m-237 -9 c11 -7 11 -9 -1 -14 -9 -3 -18 1 -21 9 -6 16 2 18 22 5z m-41
-33 c-3 -8 -6 -5 -6 6 -1 11 2 17 5 13 3 -3 4 -12 1 -19z m251 10 c9 -9 12 -9
12 1 0 11 3 11 15 1 22 -18 18 -30 -7 -30 -26 1 -61 24 -51 33 9 10 17 9 31
-5z m-194 -6 c3 -5 -1 -9 -9 -9 -8 0 -12 4 -9 9 3 4 7 8 9 8 2 0 6 -4 9 -8z
m333 -18 c-9 -9 -28 6 -21 18 4 6 10 6 17 -1 6 -6 8 -13 4 -17z m-65 -6 c-6
-6 -15 -8 -19 -4 -4 4 -1 11 7 16 8 5 17 7 19 4 3 -2 -1 -10 -7 -16z m-977 2
c-3 -5 -11 -10 -16 -10 -6 0 -7 5 -4 10 3 6 11 10 16 10 6 0 7 -4 4 -10z m825
0 c0 -5 -2 -10 -4 -10 -3 0 -8 5 -11 10 -3 6 -1 10 4 10 6 0 11 -4 11 -10z
m-220 -20 c-24 -15 -36 -11 -14 4 10 8 21 12 24 10 2 -3 -2 -9 -10 -14z m115
-45 c0 -24 -4 -47 -7 -50 -3 -4 -5 15 -3 42 1 26 -3 55 -9 63 -9 13 -9 13 5 3
11 -9 15 -27 14 -58z m325 43 c0 -14 -44 -27 -52 -15 -4 6 -5 14 -3 18 7 10
55 8 55 -3z m-985 -8 c3 -6 -1 -7 -9 -4 -18 7 -21 14 -7 14 6 0 13 -4 16 -10z
m693 -10 c-7 -10 -14 -17 -17 -15 -4 4 18 35 25 35 2 0 -1 -9 -8 -20z m-572
-35 c-9 -37 21 -46 47 -14 l19 24 -3 -23 c-3 -16 3 -26 21 -35 15 -8 26 -23
28 -39 3 -25 1 -26 -32 -23 -20 2 -33 -1 -30 -6 3 -5 -6 -9 -21 -9 -14 0 -28
7 -31 15 -4 8 -10 15 -16 15 -5 0 -6 -4 -3 -10 3 -5 -2 -10 -12 -10 -14 0 -19
7 -17 28 2 37 4 40 14 17 8 -19 9 -19 9 3 1 12 5 22 10 22 6 0 7 16 4 35 -4
24 -2 35 7 35 8 0 10 -8 6 -25z m573 -19 c-9 -8 -10 -7 -5 7 3 10 7 24 7 30 1
7 3 4 6 -7 3 -10 -1 -23 -8 -30z m50 26 c5 -9 7 -29 4 -44 -4 -23 -8 -26 -24
-17 -11 5 -19 15 -18 22 0 9 2 9 6 0 2 -7 9 -13 14 -13 13 0 11 44 -3 58 -9 9
-9 12 0 12 6 0 16 -8 21 -18z m-889 -2 c0 -5 -4 -10 -10 -10 -5 0 -10 5 -10
10 0 6 5 10 10 10 6 0 10 -4 10 -10z m533 -15 c-3 -9 -8 -14 -10 -11 -3 3 -2
9 2 15 9 16 15 13 8 -4z m147 5 c13 -8 13 -10 -2 -10 -9 0 -18 -5 -20 -11 -2
-6 -12 -1 -22 10 -19 21 -19 21 5 21 13 0 31 -5 39 -10z m40 0 c0 -5 -4 -10
-10 -10 -5 0 -10 5 -10 10 0 6 5 10 10 10 6 0 10 -4 10 -10z m205 -38 c-8 -8
-25 10 -19 20 4 6 9 5 15 -3 4 -7 6 -15 4 -17z m-385 -2 c-8 -5 -18 -6 -22 -4
-4 3 -8 1 -8 -4 0 -15 -28 -23 -36 -10 -4 6 -3 8 3 5 6 -4 14 0 17 9 3 9 13
14 21 10 8 -3 17 -1 21 5 3 6 9 8 12 4 4 -3 0 -10 -8 -15z m452 14 c9 -8 -14
-74 -23 -68 -5 3 -6 18 -2 35 5 24 3 28 -11 23 -9 -3 -16 -1 -16 5 0 11 42 16
52 5z m-1013 -26 c1 12 5 22 10 22 5 0 7 -9 4 -20 -6 -22 12 -28 20 -7 4 7 6
8 6 1 2 -19 -24 -34 -47 -27 -12 3 -22 13 -22 22 0 29 14 34 21 9 l7 -23 1 23z
m86 13 c3 -5 1 -12 -4 -15 -5 -3 -11 1 -15 9 -6 16 9 21 19 6z m583 0 c10 -6
8 -10 -9 -14 -26 -7 -34 -3 -24 12 7 13 15 14 33 2z m-538 -41 c0 -3 -11 -6
-25 -6 -30 -2 -30 -1 -9 21 14 13 19 14 25 3 5 -7 9 -15 9 -18z m566 2 c-17
-16 -18 -16 -5 5 7 12 15 20 18 17 3 -2 -3 -12 -13 -22z m134 -27 c0 -30 -4
-55 -9 -55 -5 0 -9 25 -8 55 2 72 17 72 17 0z m-47 8 c4 -19 2 -33 -3 -33 -6
0 -10 17 -10 37 0 43 5 41 13 -4z m127 -14 c0 -19 5 -29 14 -29 19 0 33 23 18
28 -7 2 -12 13 -12 25 1 20 2 20 11 4 6 -9 14 -15 19 -12 9 5 -14 -82 -23 -92
-3 -2 -8 0 -12 6 -3 6 -1 11 4 11 18 0 12 17 -8 23 -13 3 -20 16 -23 40 -2 20
0 33 4 31 4 -3 8 -18 8 -35z m-828 -4 c10 -23 12 -23 24 -7 7 9 13 13 14 7 0
-24 -59 -63 -79 -51 -6 4 -19 2 -30 -3 -16 -9 -18 -8 -14 9 3 11 9 18 13 15 5
-3 6 5 2 17 -3 13 -1 19 5 15 6 -4 13 0 17 8 9 23 35 18 48 -10z m798 16 c0
-6 -4 -13 -10 -16 -5 -3 -10 1 -10 9 0 9 5 16 10 16 6 0 10 -4 10 -9z m-913
-43 c-3 -8 -6 -5 -6 6 -1 11 2 17 5 13 3 -3 4 -12 1 -19z m167 -15 c-16 -13
-37 -29 -47 -34 -16 -9 -17 -8 -5 10 6 11 20 22 30 24 10 3 18 12 18 21 0 10
5 13 17 9 14 -5 12 -10 -13 -30z m850 22 c3 -8 1 -15 -4 -15 -6 0 -10 7 -10
15 0 8 2 15 4 15 2 0 6 -7 10 -15z m46 -5 c0 -5 -2 -10 -4 -10 -3 0 -8 5 -11
10 -3 6 -1 10 4 10 6 0 11 -4 11 -10z m-648 -25 c90 -33 119 -87 77 -146 -11
-16 -18 -29 -15 -29 11 0 54 73 50 85 -11 27 36 23 66 -5 16 -15 30 -23 31
-17 0 8 2 8 6 -1 2 -6 9 -10 14 -6 5 3 9 0 9 -6 0 -7 -7 -10 -15 -6 -10 3 -15
-1 -16 -12 0 -13 -2 -12 -9 5 -5 12 -18 27 -30 33 -21 11 -19 13 -88 -63 -29
-32 -73 -49 -109 -44 -18 3 -33 2 -33 -2 0 -4 -10 -17 -21 -30 -16 -17 -28
-21 -46 -16 -18 4 -23 2 -17 -6 5 -9 2 -10 -10 -6 -10 4 -22 7 -26 7 -5 0 -37
21 -72 48 -72 54 -103 61 -103 22 0 -15 6 -26 15 -26 8 -1 20 -2 26 -3 13 -1
29 -47 25 -71 -2 -8 -7 -19 -12 -25 -7 -7 -8 -4 -4 8 9 21 -2 67 -15 67 -6 0
-10 -10 -11 -22 0 -22 -1 -22 -9 -3 -7 17 -9 16 -9 -10 -1 -17 2 -35 7 -41 4
-5 -1 -2 -11 7 -27 23 -34 125 -11 150 25 28 50 23 116 -21 67 -46 123 -57
142 -27 8 12 8 22 0 35 -18 27 -39 21 -37 -10 2 -30 -6 -35 -25 -16 -15 15
-16 64 -2 73 6 4 -9 22 -35 43 -60 46 -40 61 30 21 56 -31 95 -38 95 -15 0 8
12 28 26 45 l25 30 -26 7 c-14 3 -29 4 -32 0 -4 -3 1 -6 10 -6 25 0 21 -16
-10 -39 -24 -20 -28 -20 -49 -6 -13 8 -30 15 -38 15 -23 0 -29 18 -12 35 10
10 24 13 39 9 15 -3 28 -1 32 6 9 14 51 9 117 -15z m404 -10 c1 -14 -2 -23 -7
-20 -5 4 -9 18 -9 32 0 32 12 23 16 -12z m44 -6 c0 -5 -4 -7 -10 -4 -5 3 -10
1 -10 -6 0 -7 -3 -10 -6 -6 -8 7 4 27 17 27 5 0 9 -5 9 -11z m150 7 c0 -2 -8
-10 -17 -17 -16 -13 -17 -12 -4 4 13 16 21 21 21 13z m-94 -36 c0 -11 -4 -20
-8 -20 -4 0 -8 9 -8 20 0 11 4 20 8 20 4 0 8 -9 8 -20z m16 -36 c-6 -11 -11
-13 -16 -5 -4 6 -2 11 3 11 6 0 11 8 12 18 0 9 3 12 5 5 3 -7 1 -20 -4 -29z
m-215 20 c-3 -3 -12 -4 -19 -1 -8 3 -5 6 6 6 11 1 17 -2 13 -5z m140 -16 c-3
-8 -6 -5 -6 6 -1 11 2 17 5 13 3 -3 4 -12 1 -19z m-744 -16 c-3 -12 -9 -22
-14 -22 -12 0 -11 7 2 32 13 25 20 19 12 -10z m847 -31 c-6 -12 -15 -21 -21
-21 -5 0 -2 11 7 25 20 30 31 26 14 -4z m-133 -3 c-3 -8 -6 -5 -6 6 -1 11 2
17 5 13 3 -3 4 -12 1 -19z m33 7 c0 -8 -4 -15 -10 -15 -5 0 -7 7 -4 15 4 8 8
15 10 15 2 0 4 -7 4 -15z m51 -8 c-10 -9 -11 -8 -5 6 3 10 9 15 12 12 3 -3 0
-11 -7 -18z m-747 -12 c3 -8 1 -15 -4 -15 -6 0 -10 7 -10 15 0 8 2 15 4 15 2
0 6 -7 10 -15z m427 -11 c12 -15 11 -16 -9 -10 -25 8 -26 7 -12 -28 13 -34 36
-33 48 2 l9 27 12 -38 c12 -35 14 -37 27 -20 12 16 12 14 2 -16 -10 -32 -12
-33 -25 -16 -7 11 -13 28 -14 39 0 20 -1 20 -11 -1 -6 -13 -15 -23 -20 -23
-17 0 -48 41 -48 63 0 39 18 48 41 21z m416 -46 c-2 -13 -4 -3 -4 22 0 25 2
35 4 23 2 -13 2 -33 0 -45z m-156 35 c13 -16 12 -17 -3 -4 -10 7 -18 15 -18
17 0 8 8 3 21 -13z m83 -8 c-4 -8 -10 -15 -15 -15 -4 0 -6 7 -3 15 4 8 10 15
15 15 4 0 6 -7 3 -15z m25 -12 c-6 -15 -25 -46 -43 -68 -18 -22 -38 -49 -44
-60 -6 -11 -12 -14 -12 -7 0 8 16 32 35 55 19 22 35 46 35 52 0 11 28 55 35
55 3 0 0 -12 -6 -27z m-262 -25 c-3 -8 -6 -5 -6 6 -1 11 2 17 5 13 3 -3 4 -12
1 -19z m-527 -57 c11 -21 14 -58 4 -48 -3 3 -6 9 -6 14 0 4 -9 14 -19 21 -11
7 -19 17 -19 23 0 17 29 9 40 -10z m513 -11 c3 -11 1 -20 -4 -20 -5 0 -9 9 -9
20 0 11 2 20 4 20 2 0 6 -9 9 -20z m112 10 c-3 -5 -14 -10 -23 -9 -14 0 -13 2
3 9 27 11 27 11 20 0z m19 -44 c-3 -21 -8 -35 -11 -32 -2 2 -1 20 3 40 3 21 8
35 11 32 2 -2 1 -20 -3 -40z m-115 -43 c-2 -27 -9 -68 -16 -92 -15 -52 -17
-121 -3 -121 6 0 10 -7 10 -16 0 -14 -3 -14 -15 -4 -13 11 -15 8 -15 -15 0
-20 -4 -26 -17 -23 -10 2 -17 11 -17 21 1 9 -2 14 -7 11 -5 -3 -9 5 -9 18 0
13 -5 29 -12 36 -8 8 -3 10 24 6 35 -6 35 -6 41 37 4 24 11 66 17 93 5 26 7
59 4 72 -4 15 -2 24 6 24 8 0 11 -16 9 -47z m211 27 c0 -5 -4 -10 -10 -10 -5
0 -10 5 -10 10 0 6 5 10 10 10 6 0 10 -4 10 -10z m-56 -83 c11 -23 22 -46 25
-52 2 -5 -3 -4 -12 4 -10 7 -17 21 -17 30 0 13 -2 13 -9 2 -10 -15 -31 -7 -30
12 0 9 2 8 6 -1 2 -6 9 -10 14 -6 5 3 6 11 2 17 -10 16 -13 37 -5 37 4 0 16
-19 26 -43z m46 33 c5 8 9 7 13 -5 4 -9 3 -13 -2 -10 -5 3 -12 1 -16 -5 -3 -5
0 -10 7 -10 8 0 14 -9 15 -20 1 -11 -2 -18 -8 -15 -5 4 -9 1 -9 -5 0 -6 -4 -8
-10 -5 -5 3 -9 25 -8 48 1 23 3 36 6 28 3 -10 6 -10 12 -1z m-137 -25 c-3 -9
-8 -14 -10 -11 -3 3 -2 9 2 15 9 16 15 13 8 -4z m17 -25 c-6 -11 -13 -20 -16
-20 -2 0 0 9 6 20 6 11 13 20 16 20 2 0 0 -9 -6 -20z m-630 -35 c17 -21 5 -31
-15 -12 -8 9 -15 18 -15 21 0 11 18 6 30 -9z m707 -7 c16 -17 15 -17 -15 -2
-36 17 -38 21 -17 21 8 0 22 -9 32 -19z m-310 -14 c-9 -9 -28 6 -21 18 4 6 10
6 17 -1 6 -6 8 -13 4 -17z m240 -36 c-3 -7 -5 -2 -5 12 0 14 2 19 5 13 2 -7 2
-19 0 -25z m-251 -26 c-15 -15 -16 -15 -16 1 0 9 5 17 10 17 6 0 11 8 11 18 1
15 2 15 6 -2 3 -10 -2 -26 -11 -34z m41 28 c-1 -11 -5 -20 -9 -20 -10 0 -10 4
-2 24 8 22 13 20 11 -4z m264 3 c12 -16 12 -17 -1 -7 -8 6 -22 14 -30 17 -13
5 -12 6 1 6 9 1 23 -7 30 -16z m-109 -33 c-10 -28 -9 -32 13 -42 27 -12 31
-25 14 -48 -9 -13 -10 -13 -6 2 7 21 -3 31 -19 17 -8 -7 -14 -7 -19 1 -4 6 -3
10 2 9 22 -4 25 3 8 20 -15 18 -16 24 -4 50 17 38 25 32 11 -9z m58 6 c0 -3
-4 -8 -10 -11 -5 -3 -10 -1 -10 4 0 6 5 11 10 11 6 0 10 -2 10 -4z m-311 -20
c9 -11 10 -20 1 -35 -9 -18 -14 -19 -31 -10 -12 6 -18 17 -15 26 3 8 6 19 6
24 0 14 26 11 39 -5z m-59 -6 c0 -5 -5 -10 -11 -10 -5 0 -7 5 -4 10 3 6 8 10
11 10 2 0 4 -4 4 -10z m430 0 c0 -5 -5 -10 -11 -10 -5 0 -7 5 -4 10 3 6 8 10
11 10 2 0 4 -4 4 -10z m41 -3 c-6 -8 -8 -17 -4 -20 3 -4 1 -7 -5 -7 -16 0 -15
27 1 33 19 8 20 8 8 -6z m-91 -21 c4 -11 6 -24 3 -28 -2 -5 1 -8 6 -8 6 0 11
-7 11 -15 0 -29 -17 -15 -30 24 -8 24 -17 37 -25 34 -7 -2 -16 0 -19 5 -3 5 6
10 20 10 17 0 28 -8 34 -22z m-515 -6 c3 -5 1 -10 -4 -10 -6 0 -11 5 -11 10 0
6 2 10 4 10 3 0 8 -4 11 -10z m412 -16 c-3 -3 -12 -4 -19 -1 -8 3 -5 6 6 6 11
1 17 -2 13 -5z m-84 -29 c-3 -9 -8 -14 -10 -11 -3 3 -2 9 2 15 9 16 15 13 8
-4z m95 -11 c3 -16 1 -16 -7 -4 -6 8 -11 11 -11 7 0 -5 -5 -5 -10 -2 -13 8 -2
27 13 22 7 -2 13 -12 15 -23z m49 -45 c0 -37 -1 -39 -12 -20 -6 12 -14 18 -18
15 -4 -4 -7 0 -7 9 0 10 7 17 15 17 8 0 15 5 15 10 0 6 2 10 3 10 2 0 4 -19 4
-41z m220 -1 c-3 -8 -6 -5 -6 6 -1 11 2 17 5 13 3 -3 4 -12 1 -19z m-317 -2
c0 -3 -4 -8 -10 -11 -5 -3 -10 -1 -10 4 0 6 5 11 10 11 6 0 10 -2 10 -4z m484
-35 c-6 -6 -24 19 -24 34 1 6 7 1 15 -9 8 -11 12 -22 9 -25z m-114 19 c8 -5
11 -12 7 -17 -5 -4 -12 -1 -16 6 -5 7 -14 10 -20 7 -6 -4 -11 -2 -11 3 0 13
20 14 40 1z m-694 -14 c8 -8 11 -21 8 -29 -4 -12 -10 -12 -30 -3 -33 15 -31
37 4 45 2 1 10 -5 18 -13z m754 5 c0 -13 -28 -22 -35 -11 -3 4 1 11 7 13 20 8
28 8 28 -2z m15 -20 c-3 -6 -11 -11 -17 -11 -6 0 -6 6 2 15 14 17 26 13 15 -4z
m-595 -7 c0 -2 -7 -4 -15 -4 -8 0 -15 4 -15 10 0 5 7 7 15 4 8 -4 15 -8 15
-10z m334 -51 c10 -33 -27 -68 -53 -51 -37 23 -41 50 -13 81 25 26 27 27 43
10 9 -10 20 -28 23 -40z m136 12 c0 -5 -5 -3 -10 5 -5 8 -10 20 -10 25 0 6 5
3 10 -5 5 -8 10 -19 10 -25z m-550 5 c0 -5 -5 -10 -11 -10 -5 0 -7 5 -4 10 3
6 8 10 11 10 2 0 4 -4 4 -10z m725 0 c3 -5 1 -10 -4 -10 -6 0 -11 5 -11 10 0
6 2 10 4 10 3 0 8 -4 11 -10z m-822 -36 c11 -11 -3 -24 -18 -18 -8 4 -12 10
-9 15 6 11 18 12 27 3z m627 -60 c0 -3 -7 -1 -15 6 -8 7 -15 17 -15 22 0 5 7
3 15 -6 8 -8 15 -18 15 -22z m-84 -39 c-3 -9 -11 -13 -17 -9 -8 5 -8 9 1 14 7
4 10 17 6 31 -6 24 -6 24 5 2 6 -12 9 -29 5 -38z m29 -16 c-10 -15 -25 -10
-19 6 4 8 10 12 15 9 5 -3 7 -10 4 -15z m-698 -21 c-3 -8 -6 -5 -6 6 -1 11 2
17 5 13 3 -3 4 -12 1 -19z m723 1 c0 -5 5 -7 11 -3 7 4 7 -1 -1 -16 -10 -18
-14 -20 -21 -9 -5 8 -9 10 -9 6 0 -5 -4 -5 -10 -2 -6 4 -5 11 3 20 14 17 27
19 27 4z m-677 -154 c4 -26 -3 -13 -18 35 -14 41 -25 82 -25 90 1 23 36 -81
43 -125z m483 30 c9 -50 0 -53 -13 -5 -5 22 -7 40 -2 40 4 0 11 -16 15 -35z
m251 -82 c-2 -16 -4 -3 -4 27 0 30 2 43 4 28 2 -16 2 -40 0 -55z m-237 7 c0
-11 -2 -20 -4 -20 -2 0 -6 9 -9 20 -3 11 -1 20 4 20 5 0 9 -9 9 -20z m157 -17
c-3 -10 -5 -4 -5 12 0 17 2 24 5 18 2 -7 2 -21 0 -30z m-396 0 c-12 -20 -14
-14 -5 12 4 9 9 14 11 11 3 -2 0 -13 -6 -23z m506 -5 c-3 -7 -5 -2 -5 12 0 14
2 19 5 13 2 -7 2 -19 0 -25z m-367 -2 c0 -3 -4 -8 -10 -11 -5 -3 -10 -1 -10 4
0 6 5 11 10 11 6 0 10 -2 10 -4z m185 -6 c3 -5 2 -10 -4 -10 -5 0 -13 5 -16
10 -3 6 -2 10 4 10 5 0 13 -4 16 -10z m-71 -30 c-6 -6 -10 -2 -11 12 -2 16 1
18 10 9 7 -7 8 -14 1 -21z m79 -5 c4 -8 3 -16 -1 -19 -4 -3 -9 4 -9 15 -2 23
3 25 10 4z m179 -68 c2 -42 1 -74 -3 -69 -7 7 -12 67 -10 126 2 55 10 20 13
-57z m-94 50 c8 -10 6 -13 -7 -13 -11 0 -17 6 -14 13 3 7 6 13 8 13 1 0 7 -6
13 -13z m68 -22 c2 -22 0 -23 -14 -9 -13 14 -13 17 -1 25 8 5 14 9 14 9 0 0 1
-11 1 -25z m-146 -30 c0 -5 -5 -3 -10 5 -5 8 -10 20 -10 25 0 6 5 3 10 -5 5
-8 10 -19 10 -25z m-159 -9 c-17 -9 -19 -14 -9 -24 19 -19 -7 -15 -31 6 l-22
17 28 2 c15 0 29 6 31 12 2 6 8 8 14 5 6 -4 2 -12 -11 -18z m84 14 c3 -6 -1
-7 -9 -4 -18 7 -21 14 -7 14 6 0 13 -4 16 -10z m171 -25 c-2 -14 -7 -25 -12
-24 -5 0 -7 6 -5 13 2 6 3 19 3 29 0 9 3 15 8 12 5 -3 7 -17 6 -30z m110 -19
c-2 -6 -8 0 -14 14 -5 14 -7 29 -4 34 7 12 24 -33 18 -48z m-226 -18 c0 -5 -7
-3 -15 6 -8 8 -15 18 -15 22 0 3 7 1 15 -6 8 -7 15 -17 15 -22z m-323 16 c-3
-3 -12 -4 -19 -1 -8 3 -5 6 6 6 11 1 17 -2 13 -5z m385 -23 c8 11 9 10 5 -3
-7 -21 20 -32 31 -12 7 13 10 13 20 1 17 -20 -62 -47 -81 -27 -10 10 -8 12 7
6 15 -5 14 -1 -7 20 -15 15 -27 31 -27 35 0 5 10 -1 21 -12 17 -17 23 -19 31
-8z m94 7 c-9 -5 -13 -15 -10 -21 5 -9 4 -9 -6 0 -10 9 -10 14 1 26 8 8 18 13
23 10 5 -3 1 -10 -8 -15z m-940 -15 c-10 -10 -19 5 -10 18 6 11 8 11 12 0 2
-7 1 -15 -2 -18z m592 7 c-7 -10 -14 -18 -15 -16 -6 6 9 36 18 36 5 0 4 -9 -3
-20z m102 -12 c0 -6 -6 -5 -15 2 -8 7 -15 14 -15 16 0 2 7 1 15 -2 8 -4 15
-11 15 -16z m177 0 c-3 -8 -6 -5 -6 6 -1 11 2 17 5 13 3 -3 4 -12 1 -19z
m-768 -223 c1 -6 -8 -16 -19 -22 -16 -11 -18 -10 -14 2 4 8 11 15 18 15 6 0
-1 12 -16 25 -16 13 -28 27 -28 30 0 11 59 -39 59 -50z m75 -141 c-5 -18 -3
-25 4 -20 20 12 22 -11 2 -29 -12 -10 -20 -13 -20 -7 0 7 5 12 11 12 8 0 8 4
-1 15 -6 8 -9 23 -5 35 9 29 17 25 9 -6z m19 -69 c-3 -9 -8 -14 -10 -11 -3 3
-2 9 2 15 9 16 15 13 8 -4z"/>
<path d="M300 3566 c0 -2 7 -7 16 -10 8 -3 12 -2 9 4 -6 10 -25 14 -25 6z"/>
<path d="M380 2274 c0 -8 5 -12 10 -9 6 4 8 11 5 16 -9 14 -15 11 -15 -7z"/>
<path d="M947 2271 c-18 -7 -18 -7 0 -21 10 -8 15 -10 11 -6 -4 5 -3 15 3 23
13 14 12 15 -14 4z"/>
<path d="M270 1985 c-14 -16 -10 -18 14 -9 9 3 16 10 16 15 0 14 -16 11 -30
-6z"/>
<path d="M337 1994 c-4 -4 -7 -14 -7 -23 0 -11 3 -12 11 -4 6 6 10 16 7 23 -2
6 -7 8 -11 4z"/>
<path d="M460 1947 c0 -12 -7 -32 -15 -44 -13 -19 -13 -22 1 -27 23 -9 24 -8
24 24 0 21 4 28 14 24 23 -9 28 -35 11 -60 -16 -25 -58 -33 -70 -14 -9 15 -47
12 -43 -2 5 -14 69 -23 104 -14 53 14 55 95 3 121 -28 15 -29 15 -29 -8z"/>
<path d="M580 1910 c-9 -6 -10 -10 -3 -10 6 0 15 5 18 10 8 12 4 12 -15 0z"/>
<path d="M470 1809 c0 -5 5 -7 10 -4 6 3 10 8 10 11 0 2 -4 4 -10 4 -5 0 -10
-5 -10 -11z"/>
<path d="M428 1803 c7 -3 16 -2 19 1 4 3 -2 6 -13 5 -11 0 -14 -3 -6 -6z"/>
<path d="M366 1783 c-6 -14 -5 -15 5 -6 7 7 10 15 7 18 -3 3 -9 -2 -12 -12z"/>
<path d="M412 3989 c26 -15 90 -16 95 -1 3 9 -11 12 -54 12 -43 -1 -54 -3 -41
-11z"/>
<path d="M2075 3760 c-16 -4 -48 -8 -70 -9 -22 -1 -54 -10 -72 -20 -17 -11
-47 -23 -67 -26 -19 -4 -42 -16 -52 -26 -9 -10 -23 -19 -29 -19 -7 0 -15 -7
-19 -15 -3 -8 -9 -14 -13 -13 -15 3 -63 -14 -63 -23 0 -5 -7 -6 -15 -3 -8 4
-15 1 -15 -5 0 -6 -11 -16 -25 -21 -14 -5 -25 -14 -25 -19 0 -6 -14 -18 -30
-26 -44 -23 -70 -47 -70 -65 0 -8 -10 -31 -22 -50 -12 -19 -34 -60 -50 -90
-16 -30 -33 -57 -37 -60 -4 -3 -13 -21 -21 -40 -7 -19 -30 -53 -50 -75 -36
-38 -81 -155 -60 -155 5 0 11 10 14 23 3 12 3 -12 0 -53 -5 -70 -8 -100 -18
-192 -2 -21 0 -35 5 -32 5 3 9 2 10 -3 1 -4 3 -28 5 -53 3 -38 15 -151 20
-185 0 -5 4 -17 7 -25 17 -44 26 -98 20 -136 -4 -33 -1 -50 17 -78 12 -20 31
-41 41 -47 11 -5 17 -14 14 -19 -3 -4 4 -38 16 -75 12 -41 18 -78 14 -96 -5
-22 -3 -29 8 -29 16 0 27 -41 27 -99 0 -20 6 -43 12 -49 7 -7 18 -34 24 -60 7
-26 26 -85 44 -132 76 -203 90 -251 99 -352 8 -85 7 -106 -6 -131 -15 -30 -24
-149 -10 -140 7 4 11 -18 9 -50 -1 -10 2 -16 7 -12 5 3 13 -4 16 -16 12 -38
74 -98 95 -92 11 3 17 9 14 14 -3 5 4 9 15 9 15 0 19 6 17 26 -2 14 -9 30 -16
34 -16 10 -24 50 -10 50 17 0 11 18 -7 23 -17 4 -17 5 0 6 9 0 17 6 17 13 0 6
7 4 18 -5 23 -21 30 -21 34 0 3 16 5 16 24 -3 11 -11 29 -24 38 -27 11 -4 16
-13 12 -22 -3 -10 1 -18 12 -21 37 -12 78 -38 103 -67 16 -17 38 -30 55 -31
16 -2 43 -8 59 -15 17 -7 49 -11 73 -9 23 2 42 0 42 -4 0 -5 16 9 35 31 22 24
48 41 68 45 38 7 120 49 162 83 76 61 180 131 183 123 2 -6 26 -10 53 -10 48
0 49 -1 49 -29 0 -33 -22 -61 -48 -61 -15 -1 -15 -2 2 -11 22 -13 68 3 64 23
-2 7 4 11 12 9 64 -16 77 -17 103 -4 16 8 27 9 27 3 0 -14 18 -13 23 3 2 6 2
2 0 -10 -4 -30 15 -30 27 0 8 20 9 20 9 -8 1 -35 -44 -135 -91 -203 -31 -44
-39 -57 -74 -122 -8 -14 -14 -33 -14 -42 0 -34 -30 -36 -108 -9 -82 28 -113
53 -201 161 -29 36 -61 69 -70 74 -9 5 -18 13 -21 17 -3 4 -32 1 -65 -7 -53
-14 -63 -20 -85 -56 -14 -23 -35 -56 -47 -75 -13 -19 -23 -47 -23 -62 0 -69
-10 -87 -64 -114 -29 -15 -60 -27 -68 -27 -20 0 -108 -57 -108 -70 0 -6 -4 -8
-10 -5 -5 3 -20 -11 -33 -32 -29 -46 -41 -76 -27 -68 6 3 10 -1 10 -10 0 -9 5
-13 11 -9 6 3 8 18 5 33 -5 17 -4 21 2 12 6 -8 12 -9 16 -3 3 6 37 11 75 11
38 0 96 7 129 15 65 17 242 103 242 117 0 5 5 9 10 9 6 0 27 11 48 24 57 38
81 40 139 12 54 -27 191 -66 229 -66 18 0 22 7 28 57 4 31 10 61 15 67 4 6 15
32 24 58 8 25 35 77 60 115 24 37 50 84 57 105 8 22 18 34 26 31 7 -2 18 5 24
17 6 11 15 18 20 15 4 -3 13 8 18 24 9 26 8 30 -11 35 -12 3 -32 6 -44 6 -16
0 -23 6 -23 19 0 21 -23 44 -34 33 -4 -4 -6 -2 -5 3 7 23 -24 84 -61 119 -22
21 -40 47 -40 58 0 24 -47 109 -67 121 -18 11 -17 157 2 227 9 30 22 91 30
135 22 114 31 137 71 176 20 19 43 47 51 63 8 16 23 38 33 49 28 30 68 148 82
241 10 70 9 95 -1 138 -13 48 -14 105 -6 348 2 68 -11 163 -25 191 -5 9 -12
38 -15 65 -4 27 -16 67 -26 88 -11 22 -19 48 -19 58 0 30 -60 137 -101 179
-21 22 -39 45 -39 52 0 7 -7 23 -16 35 -14 20 -14 22 0 22 34 0 13 19 -59 55
-41 20 -75 41 -75 46 0 5 -6 9 -13 9 -7 0 -23 9 -35 20 -12 11 -30 20 -42 20
-11 0 -20 4 -20 8 0 5 -12 15 -27 22 -16 8 -38 22 -49 33 -12 10 -31 19 -43
20 -11 1 -21 4 -21 8 0 32 -294 62 -385 39z m9 -465 c11 -5 21 -3 26 5 6 9 11
8 19 -8 11 -21 40 -31 101 -34 19 -1 40 -5 47 -10 6 -5 14 -5 18 2 3 5 15 10
26 10 18 0 37 -29 45 -68 3 -16 45 -57 59 -58 24 -1 65 -25 75 -44 6 -11 17
-20 25 -20 7 0 17 -5 20 -10 11 -18 13 -94 2 -117 -8 -18 -4 -30 26 -72 21
-29 34 -57 31 -66 -7 -17 -7 -17 -28 -9 -9 3 -16 13 -16 20 0 19 -27 29 -43
16 -8 -7 -31 -8 -62 -4 -35 5 -72 2 -120 -9 -98 -24 -118 -33 -159 -73 -22
-23 -46 -36 -63 -37 -15 -1 -47 -3 -70 -4 -32 -2 -43 1 -43 11 0 8 -4 14 -10
14 -5 0 -10 6 -10 13 0 20 -60 40 -165 53 -11 1 -47 -5 -80 -13 -33 -8 -68
-16 -77 -17 -9 -1 -27 -15 -39 -30 -12 -15 -24 -25 -27 -22 -10 10 -32 -16
-32 -39 0 -12 -3 -24 -6 -28 -10 -9 -11 -110 -2 -135 4 -12 17 -32 28 -44 l20
-22 37 19 c20 11 50 21 67 23 53 4 56 5 56 14 0 4 19 8 42 8 40 0 41 0 23 -20
-10 -11 -30 -20 -45 -20 -29 0 -80 -21 -80 -32 0 -20 144 5 172 29 10 9 16 20
15 27 -1 6 12 11 31 11 17 0 32 4 32 8 0 5 14 26 30 47 17 21 30 43 30 49 0 7
6 14 14 17 8 3 17 16 20 30 14 54 99 -5 112 -78 4 -21 12 -43 20 -49 7 -6 10
-18 7 -27 -6 -14 -4 -15 9 -4 9 7 18 26 22 42 4 21 11 30 26 30 22 0 26 -20 8
-38 -6 -6 -8 -15 -4 -19 4 -4 11 -2 15 5 10 17 81 28 81 13 0 -6 12 -12 28
-12 23 -2 24 -2 4 -6 -12 -2 -20 -9 -17 -14 4 -5 -2 -9 -12 -10 -14 0 -15 -2
-3 -6 8 -3 17 -9 20 -14 3 -4 32 -13 65 -20 74 -15 131 -6 138 21 4 14 14 20
34 20 15 1 53 2 84 4 36 2 56 -1 56 -8 0 -6 3 -24 7 -39 4 -17 2 -27 -4 -27
-6 0 -9 -4 -6 -9 3 -5 -9 -22 -28 -39 -19 -16 -37 -40 -41 -53 -4 -13 -11 -28
-15 -34 -13 -18 -18 -54 -8 -57 5 -2 0 -14 -11 -27 -12 -13 -21 -30 -21 -37 0
-14 -60 -50 -60 -37 -1 5 -8 -4 -16 -19 -8 -16 -21 -28 -29 -28 -10 0 -15 -11
-15 -34 0 -19 -4 -38 -10 -41 -5 -3 -10 -15 -10 -26 0 -17 -6 -19 -52 -15 -33
2 -56 9 -64 20 -7 10 -15 61 -19 114 -4 53 -8 111 -10 129 -1 17 -10 39 -19
48 -9 9 -16 20 -16 25 0 11 -28 21 -75 27 -31 3 -37 2 -28 -8 6 -6 9 -18 6
-25 -6 -16 32 -20 42 -4 9 15 25 12 25 -5 0 -8 5 -15 10 -15 6 0 10 -18 10
-39 0 -31 -4 -41 -21 -46 -35 -12 -69 3 -69 29 0 23 -1 23 -52 14 -29 -5 -54
-14 -56 -19 -2 -5 -28 -9 -57 -9 -30 0 -56 -4 -60 -9 -10 -18 -66 -40 -82 -34
-13 5 -15 2 -9 -13 5 -10 15 -39 24 -64 8 -25 22 -55 29 -67 l15 -22 44 21 44
22 21 -23 c19 -21 27 -22 83 -16 33 4 70 9 80 11 31 6 45 -8 35 -35 -8 -20
-14 -23 -47 -19 -20 3 -54 -1 -76 -9 -29 -10 -48 -10 -76 -3 -40 11 -64 6 -92
-17 -21 -18 -44 -8 -28 12 7 8 7 16 2 19 -6 3 -12 0 -15 -8 -3 -8 -24 -17 -47
-21 -30 -5 -44 -14 -52 -31 -6 -13 -15 -24 -19 -24 -6 0 -11 -12 -24 -62 -2
-5 -3 -11 -4 -15 -5 -27 -18 -33 -47 -22 -16 6 -47 11 -68 10 -30 -2 -45 4
-67 25 -16 15 -29 34 -29 41 0 7 -4 13 -10 13 -5 0 -10 11 -10 25 0 26 -15 34
-23 13 -4 -10 -2 23 2 51 3 15 51 -47 51 -65 0 -12 7 -25 16 -28 13 -5 15 -2
9 16 -3 13 -7 29 -7 36 -1 6 -5 12 -9 12 -5 0 -6 7 -2 15 3 9 -1 21 -10 28 -8
7 -18 29 -21 50 -4 21 -14 41 -22 44 -15 6 -20 53 -5 53 18 0 21 33 4 45 -12
9 -16 24 -15 49 2 20 -2 36 -8 36 -5 0 -10 -6 -11 -12 0 -10 -2 -10 -6 0 -8
19 -21 14 -27 -10 -2 -13 -2 -3 0 22 9 88 7 118 -10 155 -14 30 -17 54 -13
109 2 38 10 72 16 74 6 2 11 10 11 18 0 8 16 56 35 106 20 50 33 93 31 95 -2
3 0 19 6 36 13 40 30 135 30 165 0 12 4 22 9 22 5 0 9 5 9 10 0 6 12 23 26 37
14 14 31 39 36 55 6 15 15 28 22 27 21 -4 65 20 76 41 6 11 16 20 23 20 7 0
24 11 38 24 24 22 62 46 73 46 3 0 6 -7 6 -15 0 -19 41 -4 81 29 23 20 34 22
66 16 21 -4 46 -11 57 -15z m381 -595 c4 -6 11 -7 17 -4 11 7 1 -35 -11 -49
-7 -8 -122 -21 -173 -20 -28 0 -37 -11 -18 -20 6 -3 5 -4 -2 -3 -7 2 -21 -1
-31 -6 -16 -8 -17 -7 -7 11 6 12 7 21 3 21 -15 0 52 40 67 40 8 0 26 9 40 20
27 21 104 28 115 10z m-639 -21 c36 -9 44 -15 44 -35 0 -12 -4 -25 -8 -28 -4
-2 -45 -10 -92 -16 -46 -6 -92 -16 -102 -21 -23 -13 -23 -9 7 42 16 29 35 48
57 56 43 15 41 15 94 2z m590 -147 c-5 -8 -66 -4 -66 4 0 2 16 4 36 4 19 0 33
-4 30 -8z m-949 -414 c-3 -8 -6 -5 -6 6 -1 11 2 17 5 13 3 -3 4 -12 1 -19z
m717 -279 c-9 -10 -23 -19 -31 -19 -8 0 -21 -6 -29 -14 -11 -11 -22 -12 -51
-4 -21 6 -42 17 -46 24 -5 8 -12 12 -18 9 -5 -3 -6 0 -4 7 4 10 32 14 101 15
93 1 95 1 78 -18z m-242 -42 c-27 -28 -28 -43 -4 -50 9 -4 37 -18 62 -33 61
-37 193 -46 258 -18 23 10 42 25 42 32 0 7 4 11 9 8 5 -3 11 3 14 14 3 11 12
20 20 20 8 0 17 9 20 21 8 29 31 19 35 -14 2 -19 -1 -27 -12 -27 -8 0 -24 -14
-36 -30 -12 -17 -26 -28 -31 -24 -5 3 -8 2 -7 -3 6 -18 -27 -70 -51 -81 -61
-27 -145 -41 -201 -35 -37 3 -60 2 -64 -5 -9 -15 -64 -4 -88 17 -10 9 -24 16
-31 16 -8 0 -12 18 -12 55 0 30 -3 60 -6 65 -17 29 -16 45 6 69 18 19 34 26
61 26 l37 0 -21 -23z"/>
<path d="M1452 2430 c0 -14 2 -19 5 -12 2 6 2 18 0 25 -3 6 -5 1 -5 -13z"/>
<path d="M1859 2231 c-8 -17 -17 -31 -21 -31 -5 0 -8 -6 -8 -13 0 -8 -11 -24
-25 -37 -30 -28 -32 -40 -5 -40 21 0 39 29 64 101 18 51 14 64 -5 20z"/>
<path d="M1541 2174 c0 -11 3 -14 6 -6 3 7 2 16 -1 19 -3 4 -6 -2 -5 -13z"/>
<path d="M1629 2032 c-45 -3 -47 -4 -45 -35 1 -24 8 -35 29 -45 31 -15 37 -36
7 -27 -11 3 -20 2 -20 -3 0 -15 35 -20 51 -8 28 21 71 85 66 98 -4 9 -6 9 -6
-2 -1 -12 -5 -11 -19 5 -13 16 -27 19 -63 17z"/>
<path d="M1596 1827 c3 -10 9 -15 12 -12 3 3 0 11 -7 18 -10 9 -11 8 -5 -6z"/>
<path d="M3300 3485 c23 -32 72 -77 78 -71 3 4 3 7 1 9 -2 1 -24 20 -49 42
-24 22 -38 31 -30 20z"/>
<path d="M3965 3383 c-11 -3 -24 -10 -30 -15 -7 -7 -2 -8 15 -3 52 15 64 30
15 18z"/>
<path d="M3863 3348 c-18 -6 -33 -14 -33 -19 0 -7 33 0 73 16 13 6 17 2 17
-18 0 -23 1 -24 40 -14 22 6 40 15 40 19 0 12 -34 10 -47 -3 -8 -8 -14 -5 -22
10 -13 23 -20 24 -68 9z"/>
<path d="M3750 3322 c0 -2 5 -12 10 -23 6 -11 7 -19 1 -19 -5 0 -11 7 -15 15
-3 8 -15 15 -28 15 -20 0 -18 -3 12 -25 31 -23 77 -35 67 -17 -3 4 11 8 31 9
20 1 38 7 40 12 2 6 12 11 23 11 10 0 19 5 19 11 0 7 -11 9 -32 5 -73 -14
-108 -17 -108 -7 0 5 8 12 18 14 9 3 5 4 -10 4 -16 -1 -28 -3 -28 -5z"/>
<path d="M3855 3250 c-3 -5 -16 -10 -28 -11 -18 0 -17 -2 8 -11 17 -6 35 -18
41 -26 9 -12 17 -13 44 -4 18 7 44 12 56 12 19 0 24 5 24 25 0 20 -5 25 -26
25 -14 0 -32 -7 -40 -15 -17 -16 -54 -20 -54 -6 0 5 6 12 13 14 6 3 2 6 -10 6
-12 1 -25 -3 -28 -9z"/>
<path d="M3980 3048 c0 -45 2 -79 5 -76 10 9 14 158 4 158 -5 0 -9 -37 -9 -82z"/>
<path d="M755 2973 c8 -25 20 -50 27 -54 20 -12 23 -1 5 19 -9 10 -20 33 -23
50 -4 18 -10 32 -15 32 -4 0 -2 -21 6 -47z"/>
<path d="M976 2919 c-14 -11 -26 -25 -26 -31 0 -6 3 -8 7 -4 4 3 13 -4 20 -16
12 -22 12 -22 13 -2 0 11 -5 25 -12 32 -9 9 -8 12 8 13 10 1 23 1 27 0 5 -1 5
4 1 11 -6 10 -5 11 8 1 15 -13 32 -7 22 8 -9 15 -40 10 -68 -12z"/>
<path d="M755 2876 c4 -32 4 -32 25 -32 20 0 20 1 -1 17 l-22 16 23 6 c15 4
30 -1 44 -14 20 -19 20 -20 1 -13 -19 8 -19 7 -2 -11 15 -14 21 -15 27 -5 13
21 -26 55 -64 56 -28 1 -33 -2 -31 -20z"/>
<path d="M1006 2885 c-9 -26 -7 -32 5 -12 6 10 9 21 6 23 -2 3 -7 -2 -11 -11z"/>
<path d="M1034 2875 c-1 -14 2 -22 7 -19 11 6 12 44 2 44 -5 0 -9 -11 -9 -25z"/>
<path d="M1045 2840 c-3 -5 1 -10 9 -10 19 0 21 -16 4 -23 -8 -4 -9 -6 -2 -6
6 -1 17 5 23 13 10 12 8 17 -8 25 -13 7 -22 8 -26 1z"/>
<path d="M990 2825 c0 -8 4 -15 10 -15 5 0 7 7 4 15 -4 8 -8 15 -10 15 -2 0
-4 -7 -4 -15z"/>
<path d="M976 2791 c17 -17 64 -17 64 0 0 8 -4 8 -14 0 -10 -8 -16 -9 -21 -1
-3 5 -14 10 -23 10 -10 0 -12 -3 -6 -9z"/>
<path d="M0 1433 c0 -24 5 -43 11 -43 5 0 7 5 4 11 -4 6 -1 10 6 8 25 -3 39 1
39 11 0 6 -5 10 -11 10 -6 0 -19 10 -30 23 l-18 22 -1 -42z"/>
<path d="M34 1351 c4 -5 0 -11 -6 -14 -7 -2 -10 -8 -6 -12 10 -10 40 14 32 26
-3 5 -10 9 -15 9 -6 0 -8 -4 -5 -9z"/>
<path d="M950 1350 c0 -5 5 -10 10 -10 6 0 10 5 10 10 0 6 -4 10 -10 10 -5 0
-10 -4 -10 -10z"/>
<path d="M1 1298 c-1 -38 15 -95 25 -85 3 3 0 15 -6 27 -10 18 -9 24 1 31 20
13 29 11 23 -5 -3 -8 -1 -17 5 -21 7 -3 11 2 11 14 0 23 -39 51 -41 29 -1 -7
-5 1 -9 17 l-8 30 -1 -37z"/>
<path d="M23 1183 c-17 -3 -22 -11 -21 -29 1 -13 5 -24 9 -24 4 0 9 -9 12 -20
6 -22 37 -28 37 -6 0 7 -7 19 -16 27 -14 12 -14 14 5 21 12 4 21 14 21 23 0
15 -6 16 -47 8z"/>
<path d="M2 1080 c0 -14 2 -19 5 -12 2 6 2 18 0 25 -3 6 -5 1 -5 -13z"/>
<path d="M1105 1040 c-3 -6 1 -7 9 -4 18 7 21 14 7 14 -6 0 -13 -4 -16 -10z"/>
<path d="M1616 973 c-6 -14 -5 -15 5 -6 7 7 10 15 7 18 -3 3 -9 -2 -12 -12z"/>
<path d="M2782 939 c-52 -6 -66 -13 -88 -38 -14 -17 -29 -29 -34 -26 -4 2 -22
-9 -39 -25 -29 -29 -38 -50 -25 -62 7 -7 64 14 64 23 0 4 8 6 18 5 9 -2 19 0
22 3 17 22 73 51 98 51 40 0 62 9 62 25 0 7 7 18 15 25 8 7 15 16 15 21 0 10
-19 10 -108 -2z"/>
<path d="M1056 913 c-6 -14 -5 -15 5 -6 7 7 10 15 7 18 -3 3 -9 -2 -12 -12z"/>
<path d="M1152 895 c0 -16 2 -22 5 -12 2 9 2 23 0 30 -3 6 -5 -1 -5 -18z"/>
<path d="M2525 890 c-3 -5 -1 -10 4 -10 6 0 11 5 11 10 0 6 -2 10 -4 10 -3 0
-8 -4 -11 -10z"/>
<path d="M1521 863 c-16 -13 -24 -36 -32 -88 -15 -106 -27 -145 -65 -203 -20
-30 -33 -57 -29 -60 4 -4 12 1 19 11 23 31 26 18 6 -29 -24 -54 -24 -54 -6
-54 44 0 194 90 237 143 16 20 17 20 23 1 7 -23 85 -74 114 -74 11 0 29 -11
39 -24 18 -24 83 -44 83 -26 0 6 9 10 20 10 24 0 27 32 5 50 -8 7 -15 18 -15
26 0 7 -25 28 -56 46 -31 18 -63 45 -72 60 -15 26 -15 30 1 58 l18 30 -33 0
c-18 0 -48 9 -67 21 -30 18 -33 18 -27 3 6 -16 5 -16 -14 1 -11 10 -20 26 -20
35 0 9 -9 25 -20 35 -11 10 -20 24 -20 32 0 19 -63 16 -89 -4z"/>
<path d="M1151 844 c0 -11 3 -14 6 -6 3 7 2 16 -1 19 -3 4 -6 -2 -5 -13z"/>
<path d="M1153 787 c0 -7 -3 -33 -7 -58 -4 -30 -2 -51 6 -62 12 -15 15 -15 45
4 l32 21 -22 43 c-23 44 -53 74 -54 52z m27 -27 c0 -5 -4 -10 -10 -10 -5 0
-10 5 -10 10 0 6 5 10 10 10 6 0 10 -4 10 -10z"/>
<path d="M2844 754 c-4 -10 -9 -22 -11 -26 -2 -5 0 -8 5 -8 10 0 24 41 17 48
-3 3 -8 -4 -11 -14z"/>
<path d="M1260 724 c0 -8 5 -12 10 -9 6 4 8 11 5 16 -9 14 -15 11 -15 -7z"/>
<path d="M1805 697 c-6 -21 -3 -33 9 -45 15 -15 16 -14 15 8 0 14 -4 34 -9 45
-7 18 -8 18 -15 -8z"/>
<path d="M3066 685 c4 -8 8 -15 10 -15 2 0 4 7 4 15 0 8 -4 15 -10 15 -5 0 -7
-7 -4 -15z"/>
<path d="M3024 675 c-18 -14 -18 -14 4 -8 12 3 22 9 22 14 0 12 -3 11 -26 -6z"/>
<path d="M1200 571 c-5 -11 -10 -28 -9 -38 1 -12 3 -10 8 7 4 15 14 24 24 24
9 -1 17 4 17 12 0 21 -28 17 -40 -5z"/>
<path d="M812 560 c-17 -28 -15 -30 13 -17 14 7 23 16 22 21 -6 18 -22 16 -35
-4z"/>
<path d="M3979 567 c-18 -14 -30 -42 -22 -51 8 -8 37 24 40 45 3 22 3 22 -18
6z"/>
<path d="M436 552 c-3 -4 4 -9 15 -9 23 -2 25 3 4 10 -8 4 -16 3 -19 -1z"/>
<path d="M305 530 c-16 -7 -14 -8 12 -7 18 1 33 5 33 10 0 9 -19 8 -45 -3z"/>
<path d="M375 499 c-16 -6 -17 -8 -3 -8 9 -1 24 -11 32 -23 9 -12 16 -17 16
-11 0 6 3 18 6 26 6 18 -23 27 -51 16z"/>
<path d="M13 402 c-7 -4 -10 -16 -8 -27 2 -11 4 -29 5 -40 2 -14 5 -11 10 10
6 23 8 25 9 8 0 -12 6 -25 13 -29 7 -4 8 -3 4 5 -4 6 -3 18 4 26 8 10 8 15 -3
22 -8 4 -16 13 -18 20 -2 7 -9 9 -16 5z"/>
<path d="M3977 389 c3 -10 9 -16 14 -13 13 8 11 21 -5 27 -10 4 -12 0 -9 -14z"/>
<path d="M3818 363 c7 -3 16 -2 19 1 4 3 -2 6 -13 5 -11 0 -14 -3 -6 -6z"/>
<path d="M410 345 c-7 -9 -9 -22 -5 -32 8 -17 8 -17 12 -1 2 9 13 20 24 23 10
4 19 11 19 16 0 15 -36 10 -50 -6z"/>
<path d="M67 316 c-12 -17 -22 -22 -41 -19 -22 5 -25 2 -22 -23 5 -40 5 -41
15 -26 6 10 10 9 14 -7 3 -12 0 -21 -6 -21 -6 0 -8 -2 -5 -5 8 -8 39 6 33 15
-2 4 9 26 25 48 23 33 26 43 16 51 -10 9 -17 6 -29 -13z m5 -28 c-7 -7 -12 -8
-12 -2 0 14 12 26 19 19 2 -3 -1 -11 -7 -17z"/>
<path d="M3945 310 c-15 -17 -16 -20 -3 -20 9 0 18 9 21 20 3 11 4 20 3 20 -2
0 -11 -9 -21 -20z"/>
<path d="M3915 249 c-11 -4 -14 -8 -7 -8 6 -1 12 -9 12 -18 1 -17 1 -17 11 0
14 25 8 36 -16 26z"/>
<path d="M2420 225 c0 -8 5 -15 10 -15 6 0 10 7 10 15 0 8 -4 15 -10 15 -5 0
-10 -7 -10 -15z"/>
<path d="M2375 179 c-4 -6 -5 -13 -2 -16 7 -7 27 6 27 18 0 12 -17 12 -25 -2z"/>
<path d="M3897 183 c-4 -3 -7 -11 -7 -17 0 -6 5 -5 12 2 6 6 9 14 7 17 -3 3
-9 2 -12 -2z"/>
<path d="M3970 153 c-18 -7 -65 -43 -56 -43 15 0 74 29 80 39 8 12 0 13 -24 4z"/>
<path d="M1485 141 c-3 -5 -1 -12 5 -16 5 -3 10 1 10 9 0 18 -6 21 -15 7z"/>
<path d="M3332 104 c-26 -31 -24 -48 6 -52 25 -4 30 13 6 22 -13 5 -14 9 -4
21 7 8 19 15 26 15 8 0 14 5 14 10 0 18 -25 10 -48 -16z"/>
<path d="M3876 94 c-11 -28 -6 -38 9 -18 8 10 15 22 15 27 0 13 -18 7 -24 -9z"/>
<path d="M3350 86 c0 -2 7 -9 15 -16 12 -10 15 -10 15 4 0 9 -7 16 -15 16 -8
0 -15 -2 -15 -4z"/>
<path d="M3840 79 c0 -5 5 -7 10 -4 6 3 10 8 10 11 0 2 -4 4 -10 4 -5 0 -10
-5 -10 -11z"/>
<path d="M3890 57 c-8 -7 -22 -21 -30 -32 -8 -11 0 -7 18 9 29 27 37 37 30 36
-2 0 -10 -6 -18 -13z"/>
<path d="M3936 32 c-27 -14 -44 -28 -39 -29 14 -5 103 36 103 47 0 14 -9 12
-64 -18z"/>
<path d="M373 30 c4 -18 37 -27 37 -10 0 6 -5 8 -11 4 -6 -3 -16 0 -21 7 -8
12 -9 11 -5 -1z"/>
<path d="M435 10 c-4 -6 9 -10 32 -9 30 0 34 2 18 9 -27 12 -43 12 -50 0z"/>
</g>
</svg>
